<?xml version="1.0" encoding="utf-8"?>
<!-- Generator: Adobe Illustrator 25.2.0, SVG Export Plug-In . SVG Version: 6.00 Build 0)  -->
<svg version="1.1" id="Layer_1" xmlns="http://www.w3.org/2000/svg" xmlns:xlink="http://www.w3.org/1999/xlink" x="0px" y="0px" viewBox="0 0 296 180.2" style="enable-background:new 0 0 296 180.2;" xml:space="preserve">
	<style type="text/css">
		.st0{fill:#FFFFFF;}
	</style>
	<path class="st0" d="M91.2,124.6h-5V83.8c0-21.1-17.2-38.3-38.3-38.3c-21.1,0-38.3,17.2-38.3,38.3v40.8h-5V83.8
		c0-23.9,19.4-43.3,43.3-43.3c23.9,0,43.3,19.4,43.3,43.3V124.6z"/>
	<path class="st0" d="M290.6,124.6h-5V83.8c0-21.1-17.2-38.3-38.3-38.3c-21.1,0-38.3,17.2-38.3,38.3v40.8h-5V83.8
		c0-23.9,19.4-43.3,43.3-43.3c23.9,0,43.3,19.4,43.3,43.3V124.6z"/>
	<path class="st0" d="M147.6,40.5c-16.6,0-31,9.4-38.3,23.1V5h-5v78.8c0,23.9,19.4,43.3,43.3,43.3c23.9,0,43.3-19.4,43.3-43.3
		S171.5,40.5,147.6,40.5z M147.6,122.1c-21.1,0-38.3-17.2-38.3-38.3s17.2-38.3,38.3-38.3c21.1,0,38.3,17.2,38.3,38.3
		S168.7,122.1,147.6,122.1z"/>
	<g>
		<path class="st0" d="M4.2,162c0-4.4,4.1-6.5,14.1-7.3c-0.1-2.6-1.4-4.9-5.2-4.9c-2.5,0-5,1.2-6.8,2.3L5,149.9
			c2-1.3,5.3-2.8,8.7-2.8c5.3,0,7.9,3.2,7.9,8V167h-2.8l-0.3-2.6h-0.1c-2.1,1.7-4.9,3.1-7.6,3.1C7.2,167.5,4.2,165.4,4.2,162z
			 M18.3,161.9v-5c-8.3,0.6-10.8,2.3-10.8,4.8c0,2.2,2,3.1,4.2,3.1C13.9,164.8,16.1,163.8,18.3,161.9z"/>
		<path class="st0" d="M36.4,147.6h2.8l0.3,4.6h0.1c2-3.2,5.1-5.1,8.7-5.1c1.4,0,2.6,0.2,3.8,0.8l-0.8,2.8c-1.4-0.4-2.1-0.6-3.6-0.6
			c-2.9,0-5.7,1.5-8,5.6V167h-3.3V147.6z"/>
		<path class="st0" d="M63.4,157.3c0-6.5,5-10.2,10.8-10.2c3.2,0,5.5,1.3,7.1,2.8l-1.6,2.1c-1.6-1.4-3.3-2.2-5.3-2.2
			c-4.5,0-7.6,3-7.6,7.5c0,4.4,3,7.4,7.5,7.4c2.4,0,4.4-1.1,6-2.4l1.5,2.2c-2.2,1.9-4.8,3-7.7,3C68,167.5,63.4,163.8,63.4,157.3z"/>
		<path class="st0" d="M93.5,138.5h3.3v7.8l-0.2,4.6h0.1c2-2.2,4.2-3.8,7.2-3.8c4.6,0,6.7,2.7,6.7,7.8V167h-3.3v-11.6
			c0-3.7-1.3-5.4-4.4-5.4c-2.3,0-3.9,1.2-6.1,3.5V167h-3.3V138.5z"/>
		<path class="st0" d="M132,150.2h-9v-2.7h12.3V167H132V150.2z M130.7,140.9c0-1.5,1.1-2.6,2.6-2.6s2.6,1,2.6,2.6
			c0,1.6-1.1,2.6-2.6,2.6C131.8,143.5,130.7,142.5,130.7,140.9z"/>
		<path class="st0" d="M157.2,159.4v-9.2h-5.5v-2.5l5.6-0.2l0.4-6.2h2.8v6.2h9.5v2.7h-9.5v9.2c0,3.5,1.2,5.3,4.9,5.3
			c1.8,0,3.2-0.4,4.6-0.9l0.7,2.4c-1.8,0.6-3.6,1.2-6.1,1.2C159.1,167.5,157.2,164.2,157.2,159.4z"/>
		<path class="st0" d="M181.3,157.2c0-6.3,4.7-10.2,9.9-10.2c5.6,0,8.9,3.6,8.9,9.1c0,0.8-0.1,1.5-0.2,2h-16.4v-2.6H198l-0.8,0.9
			c0-4.6-2.3-6.9-5.8-6.9c-3.6,0-6.7,2.7-6.7,7.6c0,5,3.3,7.6,7.6,7.6c2.3,0,4.2-0.7,5.9-1.8l1.2,2.2c-1.9,1.3-4.4,2.3-7.5,2.3
			C186,167.5,181.3,163.7,181.3,157.2z"/>
		<path class="st0" d="M211.4,157.3c0-6.5,5-10.2,10.8-10.2c3.2,0,5.5,1.3,7.1,2.8l-1.6,2.1c-1.6-1.4-3.3-2.2-5.3-2.2
			c-4.5,0-7.6,3-7.6,7.5c0,4.4,3,7.4,7.5,7.4c2.4,0,4.4-1.1,6-2.4l1.5,2.2c-2.2,1.9-4.8,3-7.7,3C216,167.5,211.4,163.8,211.4,157.3z"
			/>
		<path class="st0" d="M246,159.4v-9.2h-5.5v-2.5l5.6-0.2l0.4-6.2h2.8v6.2h9.5v2.7h-9.5v9.2c0,3.5,1.2,5.3,4.9,5.3
			c1.8,0,3.2-0.4,4.6-0.9l0.7,2.4c-1.8,0.6-3.6,1.2-6.1,1.2C247.9,167.5,246,164.2,246,159.4z"/>
		<path class="st0" d="M270.2,164.4l1.5-2.2c2.2,1.6,4.9,2.6,8.4,2.6c3.3,0,4.9-1.4,4.9-3c0-1.5-0.8-2.5-6-3.6
			c-5.1-1-7.6-2.8-7.6-5.7c0-3.1,2.8-5.5,8.1-5.5c3,0,5.9,1.2,7.8,2.5l-1.6,2.1c-1.8-1.2-4-2-6.5-2c-3.3,0-4.5,1.3-4.5,2.8
			c0,1.7,1.7,2.4,5.7,3.2c6.4,1.4,8,3,8,6c0,3.2-3.1,5.8-8.6,5.8C276,167.5,272.6,166.1,270.2,164.4z"/>
	</g>
</svg>
